<svg width="25" height="24" fill="none" xmlns="http://www.w3.org/2000/svg"><path d="m3 15-2-.5c-.5 1.1-1 2.4-1 3.8s.5 2.6 1 3.8l6.4-1.4v2.7l2.2-1 2.2 1v-2.7L18 22c.6-1.1 1-2.4 1-3.8v-.7h6V0H3v15Zm-1.1 5.4c-.2-.5-.4-1.3-.4-2 0-.9.2-1.7.4-2.2l5.5 1.2v1.8l-5.5 1.2Zm8.4.7-.7-.4-.8.4v-3.5h1.5V21Zm6.9-.7-5.4-1.2v-1.8l5.4-1.2c.2.5.4 1.3.4 2.1s-.2 1.6-.4 2Zm6.3-19v14.7h-4.8l-.7-1.6-7 1.6H8.2l-3.8-.8V1.5h19.1Z" fill="#000"/><path d="M8.8 3h10.3v1.4H8.8V2.9ZM5.9 8.8H22v1.5H5.9V8.8ZM8.8 11.7h10.3v1.5H8.8v-1.5ZM10.3 5.9h1.5v1.4h-1.5V6ZM13.2 5.9h1.5v1.4h-1.5V6ZM16.2 5.9h1.4v1.4h-1.4V6Z" fill="#000"/></svg>