<svg width="46" height="65" fill="none" xmlns="http://www.w3.org/2000/svg" viewBox="0 0 46 65" role="img" aria-label="Логотип css3">
  <path d="M23 65 4.2 59.8 0 12.8h46l-4.2 47L23 65Z" fill="#4353AD"/>
  <path d="m38.2 56.8 3.6-40.2H23V61l15.2-4.2" fill="#485FB5"/>
  <path d="m23 49-6.4-1.7-.4-4.6h-5.8l.8 9L23 55v-6ZM8.6 22.4 9 28H23v-5.7H8.6Zm1 11.7.5 5.7H23v-5.7H9.6" fill="#EDEDED"/>
  <path d="M27.6 0h7v2.5h-4.1V3h4V9h-7V6.2h4.1v-.5h-4V0Zm-8.4 0h7v2.5h-4V3h4V9h-7V6.2h4v-.5h-4V0Zm-8.4 0h7v3h-4v2.8h4v3h-7V0Z" fill="#100F0D"/>
  <path d="m36.4 34 1-11.6H23V28h8l-.4 6H23v5.7h7l-.6 7.5L23 49v6l11.8-3.2v-1l1.4-15.2.2-1.5Z" fill="#ffffff"/>
</svg>
