<svg width="25" height="21" fill="none" xmlns="http://www.w3.org/2000/svg" viewBox="0 0 25 21" role="img" aria-label="Логотип css3">
  <path d="M23.4 0H1.6A1.6 1.6 0 0 0 0 1.6v13.7A1.6 1.6 0 0 0 1.6 17H10l-.5 1.6H8a.4.4 0 0 0-.4.5v.8H4a.4.4 0 1 0 0 .8h17.8a.4.4 0 0 0 0-.8h-4.5V19a.4.4 0 0 0-.4-.5h-1.3l-.5-1.6h8.3a1.6 1.6 0 0 0 1.6-1.6V1.6A1.6 1.6 0 0 0 23.4 0Zm-6.9 19.4v.4h-8v-.4h8Zm-6.3-.9.6-1.6h3.4l.6 1.6h-4.6Zm14-3.2a.8.8 0 0 1-.8.8H1.6a.8.8 0 0 1-.8-.8v-.8h23.4v.8ZM6.8 10.1l-.1 3.6h-.5l-.1-3.6h.7Zm-.7-.8.3-1.6h.1l.3 1.6H6Zm.4-2.4c-.5 0-.9-.6-.9-1.3 0-.4.5-1 .9-1.4.3.4.8 1 .8 1.4 0 .7-.4 1.3-.8 1.3Zm4.3-.9v.5H9.4V6h1.5Zm-1-.8.3-.7.3.7h-.7Zm1 2v6.5H9.4V7.3h1.6Zm3.7-1.6h1.2v.9h-.4a.4.4 0 1 0 0 .8h.4V8h-1.2a.4.4 0 0 0 0 .8h1.2v.8h-.4a.4.4 0 1 0 0 .8h.4v.8h-1.2a.4.4 0 0 0 0 .8h1.2v1.6H13V4h2.8v.8h-1.2a.4.4 0 0 0 0 .8Zm4.9 4.9v3.2h-1.7v-3.2h1.7Zm-1.7-.8v-.3l.8-1.6.9 1.6v.3h-1.7Zm6.5 4h-4V9l-1.3-2.4a.4.4 0 0 0-.7 0L17 9V13.7h-.5v-10a.4.4 0 0 0-.4-.5h-3.6a.4.4 0 0 0-.4.4v10.1h-.4V5.9l-1.3-2.5a.4.4 0 0 0-.7 0L8.5 6v7.8h-1l.2-4-.4-2.3c.5-.4.8-1 .8-1.8 0-1-1.2-2.1-1.4-2.3a.4.4 0 0 0-.5 0c-.2.2-1.4 1.3-1.4 2.3 0 .8.4 1.4.8 1.8l-.4 2.2.2 4.1H.8v-12a.8.8 0 0 1 .8-.9h21.8a.8.8 0 0 1 .8.8v12.1Z" fill="#000"/>
  <path d="M4.4 15H2a.4.4 0 0 0 0 .7h2.4a.4.4 0 0 0 0-.8ZM6 15h-.4a.4.4 0 0 0 0 .7H6a.4.4 0 0 0 0-.8ZM10 7.7a.4.4 0 0 0-.3.4v4.4a.4.4 0 0 0 .8 0V8.1a.4.4 0 0 0-.4-.4ZM18.5 10.9a.4.4 0 0 0-.4.4v1.2a.4.4 0 0 0 .9 0v-1.2a.4.4 0 0 0-.5-.4ZM2 2.4h3.2a.4.4 0 0 0 0-.8H2a.4.4 0 1 0 0 .8ZM2 3.6h.8a.4.4 0 1 0 0-.8H2a.4.4 0 1 0 0 .8ZM21.4 12.9H23a.4.4 0 0 0 0-.8h-1.6a.4.4 0 0 0 0 .8ZM22.6 11.7h.4a.4.4 0 1 0 0-.8h-.4a.4.4 0 0 0 0 .8Z" fill="#000"/>
</svg>
