<svg width="25" height="25" fill="none" xmlns="http://www.w3.org/2000/svg"><path d="m20.3 19.1-.7.5 1.5 2.3H4L5.7 19h9.9v-.7H5.5a.4.4 0 0 0-.4.1L2.8 22V23.4a.8.8 0 0 0 .7.8h18a.8.8 0 0 0 .8-.8v-1.1l-.1-.3-2-2.9ZM3.5 23.4v-.7h18v.7h-18ZM20.3.8H4.7A1.2 1.2 0 0 0 3.5 2V12a1.2 1.2 0 0 0 1.2 1.2h5.5v1.5H8.6a.4.4 0 0 0-.4.4v1.6a.4.4 0 0 0 .4.4h7.8a.4.4 0 0 0 .4-.4v-1.6a.4.4 0 0 0-.4-.4h-1.6v-1.5h5.5a1.2 1.2 0 0 0 1.2-1.2V2A1.2 1.2 0 0 0 20.3.8ZM16 15.6v.8H9v-.8h7Zm-5-.8v-1.5h3v1.5h-3Zm9.7-2.7a.4.4 0 0 1-.4.4H4.7a.4.4 0 0 1-.4-.4V11h16.4v1.2Zm0-2H4.3V2a.4.4 0 0 1 .4-.4h15.6a.4.4 0 0 1 .4.4v8.2Z" fill="#000"/><path d="M18.4 11.3h.7v.8h-.7v-.8ZM9 9.4h1.5A.4.4 0 0 0 11 9v-.4h3.2V9a.4.4 0 0 0 .4.4H16a.4.4 0 0 0 .4-.4V7.4A.4.4 0 0 0 16 7h-.4V4.7h.4a.4.4 0 0 0 .4-.4V2.7a.4.4 0 0 0-.4-.4h-1.5a.4.4 0 0 0-.4.4v.4h-3.2v-.4a.4.4 0 0 0-.4-.4H9a.4.4 0 0 0-.4.4v1.6a.4.4 0 0 0 .4.4h.4V7H9a.4.4 0 0 0-.4.4V9a.4.4 0 0 0 .4.4Zm6.6-.8h-.8v-.8h.8v.8ZM14.8 3h.8V4h-.8v-.8Zm-5.4 0h.8V4h-.8v-.8Zm.8 1.6h.3a.4.4 0 0 0 .4-.4v-.4h3.2v.4a.4.4 0 0 0 .4.4h.3V7h-.3a.4.4 0 0 0-.4.4v.4h-3.2v-.4a.4.4 0 0 0-.4-.4h-.3V4.7Zm-.8 3.1h.8v.8h-.8v-.8ZM9 20.3h5.5v.8H9v-.8ZM23.4 14.4l-1.1-1.1a.4.4 0 0 0-.3-.1.4.4 0 0 0-.3 0l-5.2 5.3-.1.2-.3.8a.4.4 0 0 0 .1.4l-.5.6.5.5.6-.5a.4.4 0 0 0 .4 0l.8-.2.1-.1 5.3-5.3a.4.4 0 0 0 0-.5Zm-5.7 5.2-.6.1-.2-.2.2-.5 3.8-3.8.6.6-3.8 3.8Zm4.3-4.4-.5-.5.5-.6.6.6-.6.5Z" fill="#000"/></svg>