<svg width="48px" height="48px" viewBox="0 0 48 48" version="1.1" xmlns:xlink="http://www.w3.org/1999/xlink" xmlns="http://www.w3.org/2000/svg">
  <defs>
    <path d="M0 0L48 0L48 48L0 48L0 0Z" id="path_1" />
    <clipPath id="mask_1">
      <use xlink:href="#path_1" />
    </clipPath>
  </defs>
  <g id="github-logo_icon-icons.com_73546">
    <path d="M0 0L48 0L48 48L0 48L0 0Z" id="Background" fill="none" fill-rule="evenodd" stroke="none" />
    <g clip-path="url(#mask_1)">
      <path d="M44.7817 12.5446C40.5 5.12367 32.573 0.562957 24.0055 0.591103C17.6299 0.561831 11.507 3.08157 6.99872 7.58983C2.49046 12.0981 -0.029279 18.221 -7.18574e-06 24.5966C-7.18574e-06 29.818 1.53249 34.525 4.57559 38.6955C7.64059 42.8771 11.5813 45.7669 16.3977 47.376C16.9669 47.4855 17.3829 47.3979 17.6565 47.1571C17.9302 46.9054 18.0616 46.5879 18.0616 46.2157C18.0552 44.7286 18.0442 43.2412 18.0287 41.7539L17.3172 41.87C16.0164 42.0275 14.6993 41.9906 13.4094 41.7605C12.654 41.6292 11.9535 41.3227 11.3076 40.8301C10.6662 40.342 10.1889 39.6699 9.93933 38.9035L9.62189 38.1811C9.35822 37.6145 9.02746 37.0816 8.63671 36.5938C8.19885 36.0027 7.7391 35.6087 7.27935 35.4007L7.06043 35.2474C6.77037 35.0351 6.53418 34.7576 6.3708 34.4374C6.31607 34.2841 6.3708 34.1637 6.535 34.0762C6.69919 33.9776 7.00569 33.9339 7.4326 33.9339L8.0675 34.0324C8.48346 34.109 8.99794 34.3608 9.59999 34.7767C10.2267 35.1986 10.7505 35.756 11.1325 36.4078C11.5448 37.1862 12.1379 37.8544 12.862 38.3562C13.5407 38.7941 14.2194 39.0239 14.909 39.0239C15.5986 39.0239 16.1897 38.9802 16.6933 38.8707C17.1859 38.7612 17.6566 38.608 18.0944 38.4C18.1987 37.1771 18.7432 36.0336 19.6269 35.1818C18.5452 35.0774 17.473 34.8907 16.4196 34.6235C15.4782 34.3717 14.493 33.9667 13.486 33.3975C12.519 32.8752 11.6637 32.1686 10.9683 31.3177C10.2244 30.3329 9.6678 29.2198 9.32633 28.0337C8.87695 26.5098 8.66285 24.9263 8.69144 23.3377C8.69144 20.8201 9.51242 18.6746 11.1544 16.9013C10.3881 15.0075 10.4538 12.8839 11.3733 10.5195C11.9754 10.3334 12.873 10.4757 14.0661 10.9464C15.456 11.4706 16.7788 12.1577 18.0068 12.9934C21.9303 11.8934 26.0806 11.8934 30.0041 12.9934L31.1863 12.249C32.0073 11.7455 32.9596 11.2857 34.0652 10.8698C35.1599 10.4538 36.0137 10.3334 36.5938 10.5304C37.5352 12.8839 37.6228 15.0075 36.8456 16.9013C38.481 18.6402 39.3692 20.9511 39.3195 23.3377C39.3195 25.1111 39.1006 26.6764 38.6737 28.0447C38.3376 29.2349 37.7765 30.3497 37.0207 31.3286C36.3165 32.1751 35.4585 32.8807 34.4921 33.4084C33.4741 33.9558 32.4999 34.3717 31.5475 34.6125C30.6061 34.8753 29.5334 35.0504 28.3512 35.1818C29.4349 36.1231 29.9713 37.6009 29.9713 39.626L29.9713 46.2157C29.9713 46.5879 30.1026 46.9054 30.3653 47.1571C30.628 47.398 31.0331 47.4855 31.6023 47.3761C36.4296 45.7669 40.3703 42.8771 43.4244 38.6956C46.4442 34.6154 48.0506 29.6615 48 24.5856C48 20.2399 46.9272 16.2226 44.7817 12.5446L44.7817 12.5446Z" id="Shape" fill="#000000" stroke="none" />
    </g>
  </g>
</svg>
