<svg width="46" height="65" fill="none" xmlns="http://www.w3.org/2000/svg" viewBox="0 0 46 65" role="img" aria-label="Логотип html5">
  <path d="M4.2 59.8 0 12.8h45.8l-4.2 47L22.9 65 4.2 59.8Z" fill="#E53D20"/>
  <path d="M22.9 61 38 56.8l3.6-40.2H22.9V61Z" fill="#F15123"/>
  <path d="M22.9 34h-7.6l-.5-5.9h8v-5.7H8.6l.2 1.5L10 40h12.8V34ZM22.9 49l-6.4-1.7-.4-4.6H10.3l.8 9L23 55v-6Z" fill="#EDEDED"/>
  <path d="M4.3 0h2.9v2.9h2.6V0h3v8.8h-3v-3H7.2v3h-3V0ZM16.6 3H14V0h8v3h-2.5v5.8h-3V2.9ZM23.3 0h3l2 3L30 0h3v8.8h-2.9V4.4l-2 3.1-2-3v4.3h-2.9V0ZM34.6 0h2.9v5.9h4.1v2.9h-7V0Z" fill="#100F0D"/>
  <path d="M22.9 34v5.8h7l-.6 7.5-6.4 1.7v6l11.7-3.2.1-1L36 35.6l.2-1.5H22.9ZM22.9 22.4V28h13.8l.1-1.2.3-3 .1-1.5H23Z" fill="#fff"/>
</svg>
