<svg xmlns="http://www.w3.org/2000/svg">
  <symbol id="icon-html5" width="46" height="65" fill="none" xmlns="http://www.w3.org/2000/svg" viewBox="0 0 46 65"
    role="img" aria-label="Логотип html5">
    <path d="M4.2 59.8 0 12.8h45.8l-4.2 47L22.9 65 4.2 59.8Z" fill="#E53D20" />
    <path d="M22.9 61 38 56.8l3.6-40.2H22.9V61Z" fill="#F15123" />
    <path d="M22.9 34h-7.6l-.5-5.9h8v-5.7H8.6l.2 1.5L10 40h12.8V34ZM22.9 49l-6.4-1.7-.4-4.6H10.3l.8 9L23 55v-6Z"
      fill="#EDEDED" />
    <path
      d="M4.3 0h2.9v2.9h2.6V0h3v8.8h-3v-3H7.2v3h-3V0ZM16.6 3H14V0h8v3h-2.5v5.8h-3V2.9ZM23.3 0h3l2 3L30 0h3v8.8h-2.9V4.4l-2 3.1-2-3v4.3h-2.9V0ZM34.6 0h2.9v5.9h4.1v2.9h-7V0Z"
      fill="#100F0D" />
    <path d="M22.9 34v5.8h7l-.6 7.5-6.4 1.7v6l11.7-3.2.1-1L36 35.6l.2-1.5H22.9ZM22.9 22.4V28h13.8l.1-1.2.3-3 .1-1.5H23Z"
      fill="#fff" />
  </symbol>
  <symbol id="icon-css3" width="46" height="65" fill="none" xmlns="http://www.w3.org/2000/svg" viewBox="0 0 46 65"
    role="img" aria-label="Логотип css3">
    <path d="M23 65 4.2 59.8 0 12.8h46l-4.2 47L23 65Z" fill="#4353AD" />
    <path d="m38.2 56.8 3.6-40.2H23V61l15.2-4.2" fill="#485FB5" />
    <path d="m23 49-6.4-1.7-.4-4.6h-5.8l.8 9L23 55v-6ZM8.6 22.4 9 28H23v-5.7H8.6Zm1 11.7.5 5.7H23v-5.7H9.6"
      fill="#EDEDED" />
    <path
      d="M27.6 0h7v2.5h-4.1V3h4V9h-7V6.2h4.1v-.5h-4V0Zm-8.4 0h7v2.5h-4V3h4V9h-7V6.2h4v-.5h-4V0Zm-8.4 0h7v3h-4v2.8h4v3h-7V0Z"
      fill="#100F0D" />
    <path d="m36.4 34 1-11.6H23V28h8l-.4 6H23v5.7h7l-.6 7.5L23 49v6l11.8-3.2v-1l1.4-15.2.2-1.5Z" fill="#ffffff" />
  </symbol>
  <symbol id="icon-js" width="65" height="65" fill="none" xmlns="http://www.w3.org/2000/svg" viewBox="0 0 65 65"
    role="img" aria-label="Логотип js">
    <path d="M0 0h65v65H0V0Z" fill="#f7df1e" />
    <path
      d="m17 54.3 5-3c1 1.7 1.9 3.1 4 3.1 2 0 3.3-.7 3.3-3.8V29.8h6v20.9c0 6.3-3.6 9.2-9 9.2a9.5 9.5 0 0 1-9.2-5.6M38.7 53.7l5-3c1.3 2.2 3 3.8 6 3.8 2.5 0 4.1-1.3 4.1-3 0-2.1-1.6-2.9-4.4-4l-1.5-.7c-4.5-2-7.4-4.3-7.4-9.2 0-4.6 3.5-8.1 9-8.1 3.9 0 6.6 1.3 8.6 4.9l-4.7 3c-1-1.8-2.2-2.6-4-2.6-1.7 0-2.9 1.1-2.9 2.6 0 1.9 1.2 2.6 3.8 3.7l1.5.7C57 44 60 46.3 60 51.4c0 5.5-4.3 8.5-10 8.5-5.8 0-9.4-2.7-11.2-6.2"
      fill="#000000" />
  </symbol>
  <symbol id="icon-jquery" width="162" height="37" fill="none" xmlns="http://www.w3.org/2000/svg" viewBox="0 0 162 37"
    role="img" aria-label="Логотип jquery">
    <path fill-rule="evenodd" clip-rule="evenodd"
      d="M154.4 2.7h6.7l-13.6 18.5c-.3.4-.8 1-1 1.5-.7 1.5-1.4 4.8-1.4 4.8H139s1-3.4 1-5.2c0-1.6-.9-3.2-1.4-4.9l-1-4.8h6.3l.9 3.5 9.7-13.4Z"
      fill="#1A1918" />
    <path fill-rule="evenodd" clip-rule="evenodd"
      d="M141.6 6.3c1.2.8 2 5 2 5h-13.1l-3.8 16.2H121s3.5-17.6 4.4-20.8c.2-1 1.8-.9 4.5-.9h4.3c2.8 0 6-.3 7.4.5ZM115 14.2s.2-1-.6-2.2c-.7-1-1.3-1.3-3-1.4-5-.1-5 3.6-5 3.6h8.6Zm5.4-4.2a27 27 0 0 1-.7 8.8h-11.2c-1.2 0-2.7-.2-3 .4-.6.8.1 2 .7 2.6.7.6 2 .7 2.5.7 3.3.4 10 .1 10 .1l-1.2 5.2s-9.5.5-14.2-.7c-1-.2-1.9-.7-2.5-1.3l-.4-.6-.7-1.2c-1-2.8.2-8.4 1.4-11.4l.5-1.1.6-1.3c0-.2.2-.3.4-.5l.4-.6 1.6-1.3c2-1.5 5.5-2.6 9.9-2.2 1.6.2 4 .8 5.2 2.4.3.5.5 1.4.7 2ZM94.2 5.8h5.5l-4.6 21.7h-6.4c-4.4 0-8.4.6-10-2.6-1.7-3-.2-8.2.6-11.6l1.6-7.5h5.7l-2.3 11.6c-.2 1.4-.7 2.7-.2 3.8.5 1 1.2 1 3.3 1h2.9l3.9-16.4ZM68.3 16.3c.6-2 1.4-4.2 1.3-6 0-2-1.8-3.9-2.8-4.3a7.3 7.3 0 0 0-7.5 1.8c-1.5 1.7-2 3.6-2.6 6.4-.4 2-.8 4 0 5.7C58 22.6 62 22 66.6 22l1.7-5.8Zm7.7-8c.6 4.5-1.8 9.6-3.5 14 1.7.2 3.2 0 3.3.1.1.2-1.1 5.3-1.5 5.3h-7.7c-6.1 0-11.8.5-14.7-2.6a9.6 9.6 0 0 1-2.2-4.8c-.4-2.5 0-5.2.6-7.5.5-2 1.2-4 2.2-5.7 2.6-4.4 7-7.8 14.5-7 1.4.2 3.5.8 4.8 1.5l.5.4A9.6 9.6 0 0 1 76 8.2ZM49 5.8 48 11.1h-6.1c.4-1.9.8-3.7 1.3-5.3h6ZM41.5 12.6h6c-.8 4.3-2.3 11.2-3.6 16-.7 3-1.2 5.3-3.2 6.8l-.5.3c-.4.3-2 .7-3 .8-1.6.2-3.4 0-5.3 0l1.5-5.7c4.7.6 4.8-3.8 5.7-8l2.4-10.2Z"
      fill="#1A1918" />
    <path fill-rule="evenodd" clip-rule="evenodd"
      d="m27.7 23.8-.1.3c-2.2 4.3-6 6.8-11.5 7a16 16 0 0 1-14.5-8.8c-2.2-4.4-2.6-10.5 2-15l-.4 1-.2.4c-3.4 10.6 7 19.7 17.2 18.6 2.5-.2 5.6-1.6 7.5-3.5Z"
      fill="#21609B" />
    <path fill-rule="evenodd" clip-rule="evenodd"
      d="M21.6 19.4c2.5 0 5.2-1.2 6.8-2.8-1.4 3.5-5.4 5.7-10.8 5-4.5-.6-8.8-5.1-9.2-9.6-.3-3.3.8-5.3 2.7-7.7a8 8 0 0 0-1 2.8c-.7 7.2 5.8 12.3 11.5 12.3Z"
      fill="#21609B" />
    <path fill-rule="evenodd" clip-rule="evenodd"
      d="M28.1 10.6a8 8 0 0 1-3.7 2.8A7 7 0 0 1 16 8.8c-.5-1.8-.3-4.5 1.3-5.9a7.3 7.3 0 0 0-.3 3.9c.1.6.6 1.6 1 2.3.8 1.2 1.4 1.5 2.4 2.1.5.3 1 .6 1.3.6 1 .3 3 1 6.5-1.2Z"
      fill="#21609B" />
  </symbol>
  <symbol id="icon-react" width="72" height="65" fill="none" xmlns="http://www.w3.org/2000/svg" viewBox="0 0 72 65"
    role="img" aria-label="Логотип react">
    <path
      d="M.2 32.4C.2 38 5.5 43 13.8 45.8c-1.7 8.4-.3 15.2 4.3 17.8 4.6 2.7 11.6.8 18.2-5 6.5 5.6 13 7.8 17.6 5.2 4.6-2.8 6-10 4.4-18.7 8.6-2.8 13.5-7.2 13.5-12.7 0-5.3-5.3-9.9-13.5-12.7 1.8-9 .3-15.6-4.5-18.4-4.6-2.6-11.2-.3-17.7 5.4-6.8-6-13.3-8-18-5.2-4.7 2.7-6 9.6-4.3 18.1C5.8 22.5.2 27.1.2 32.4Z"
      fill="#fff" />
    <path
      d="m56.5 22.5-2-.6.3-1.4c1.6-7.6.5-13.7-3-15.7-3.2-1.9-8.7.1-14.1 4.9L36 11.2l-1-1C29.2 5 23.4 2.9 20 4.9c-3.3 2-4.3 7.7-3 14.8l.6 2.1-2.4.8c-6.7 2.3-11 6-11 9.9 0 4 4.6 7.9 11.6 10.3l1.7.5-.5 2.3c-1.3 7-.3 12.6 3 14.5 3.5 2 9.2 0 14.8-5l1.3-1.1 1.7 1.5c5.4 4.7 10.7 6.6 14 4.7 3.4-2 4.5-8 3.1-15.3l-.4-1.7 1.2-.4c7.3-2.4 12-6.3 12-10.3 0-3.9-4.4-7.6-11.3-10Z"
      fill="#53C1DE" />
    <path
      d="m55 40.2-1.1.4c-.8-2.6-1.9-5.3-3.2-8.1 1.2-2.8 2.3-5.5 3-8l2 .6c5.8 2 9.4 5 9.4 7.4 0 2.4-3.9 5.6-10.1 7.7Zm-2.7 5.2c.7 3.2.8 6.2.4 8.4-.4 2.1-1.2 3.5-2.1 4-2 1.2-6.3-.3-11-4.3L38.2 52a64 64 0 0 0 5.3-6.8c3-.3 6-.7 8.6-1.3l.3 1.5ZM26 57.6c-2 .7-3.6.7-4.5.2-2-1.2-2.8-5.7-1.7-11.7l.5-2.1c2.6.6 5.4 1 8.5 1.2 1.8 2.5 3.6 4.8 5.5 6.8L33 53.1a23 23 0 0 1-7.1 4.5Zm-9.2-17.4a23 23 0 0 1-7.4-4C7.8 35 7 33.6 7 32.6c0-2.4 3.5-5.3 9.2-7.4a39 39 0 0 1 2.2-.6c.8 2.6 1.8 5.3 3 8a66.7 66.7 0 0 0-3 8.2l-1.6-.5Zm3-21c-1.1-6.1-.3-10.8 1.7-12 2-1.2 6.8.6 11.7 5l1 .9c-1.9 2-3.7 4.3-5.4 6.7-3 .3-5.9.8-8.5 1.4l-.4-2ZM47.4 26l-2-3.2 5.8 1c-.5 1.8-1.2 3.6-2 5.5a95 95 0 0 0-1.8-3.3ZM36 15l3.7 4.6a79.7 79.7 0 0 0-7.5 0c1.3-1.7 2.5-3.2 3.8-4.5ZM24.8 26 23 29.3l-2-5.5c1.8-.4 3.8-.8 5.8-1l-2 3.2Zm2 16.3c-2-.2-4-.5-5.8-1l2-5.6L25 39c.6 1.2 1.3 2.2 2 3.3Zm9.4 7.8-3.9-4.6a94.4 94.4 0 0 0 7.6 0 58 58 0 0 1-3.7 4.6Zm13-14.5a58 58 0 0 1 2 5.6c-1.8.5-3.8.8-5.9 1a95.5 95.5 0 0 0 3.8-6.6Zm-4.3 2-3 5a81.4 81.4 0 0 1-11.6 0l-3.1-5c-1-1.6-1.9-3.4-2.7-5a76.7 76.7 0 0 1 5.8-10 76 76 0 0 1 11.6 0 82.2 82.2 0 0 1 5.8 9.9l-2.8 5.2Zm5.6-30.4c2.2 1.2 3 6.2 1.6 12.7l-.2 1.3c-2.7-.6-5.5-1-8.5-1.4a64 64 0 0 0-5.4-6.7c.5-.5 1-1 1.5-1.3 4.6-4.1 9-5.8 11-4.6Z"
      fill="#fff" />
    <path d="M36 26.8c3.2 0 5.7 2.5 5.7 5.7a5.7 5.7 0 1 1-5.6-5.7Z" fill="#53C1DE" />
  </symbol>
  <symbol id="icon-mongo" width="160" height="45" fill="none" xmlns="http://www.w3.org/2000/svg" viewBox="0 0 160 45"
    role="img" aria-label="Логотип html5">
    <path fill-rule="evenodd" clip-rule="evenodd"
      d="M149 18.6c-.2 0-.3.3-.3.5a337.6 337.6 0 0 0 .1 6.4h2.4c1.2 0 2-.2 2.3-.3 1-.5 1.6-1.6 1.6-2.9 0-2.7-2-3.8-5-3.8H149Zm7.4 12.7c0-2.8-2-4.4-5.9-4.4h-1.7l-.2.2v6.5c.1.5.5 1.3 1 1.5.6.3 1.7.4 2.5.4 2.3 0 4.3-1.3 4.3-4.2ZM143.1 17h9.2c2.5 0 6 1 6 4.6 0 1.8-1.3 3.3-3 4-.1 0-.1 0 0 .1 2.4.6 4.5 2 4.5 4.9 0 2.7-1.7 4.4-4.2 5.5a14 14 0 0 1-5.4.9c-1.5 0-5.4-.2-7.6-.1-.2 0 .2-1.1.4-1.3.5 0 1 0 1.5-.2.8-.2.8-.4 1-1.6v-14c0-.8-.3-1.1-1-1.3l-2-.3.6-1.2Zm-16.6 17.7c.6.5 2 .8 3.2.8 1.6 0 3.1-.3 4.6-1.7 1.6-1.3 2.6-3.4 2.6-6.8 0-3.2-1.2-5.8-3.8-7.3a10.3 10.3 0 0 0-7-1.1s-.3.3-.3.5v14.2c0 .5.2 1.1.7 1.4ZM119.9 17h10.2c2.9 0 5.3.8 7 2.2a9.2 9.2 0 0 1 3.3 7.3c0 4.3-2 6.8-4 8.2-2 1.5-4.6 2.3-8.3 2.3H120c-.2-.3.2-1.3.4-1.4.7 0 1 0 1.3-.2.6-.2.7-.6.8-1.6V20c0-1-.5-1.3-1.3-1.5l-1.8-.2c-.2-.2.4-1.1.5-1.3Z"
      fill="#8E714E" />
    <path fill-rule="evenodd" clip-rule="evenodd"
      d="M85 35.8c-.7 0-1.2-.2-1.9-.5L83 35V29c0-1.5-.3-2.8-1-3.8a4 4 0 0 0-3.3-1.7c-1.3 0-3 .9-4.4 2 0 0-.3.3-.2 0v-1.4l-.1-.6c-1 .5-3.6 1-4.5 1.1-.7.2-.9.8-.2 1l1.8.8c.3.2.2.5.2.8v7.2c0 .7-.3 1-.8 1l-1.1.3c-.2.2-.2 1 0 1.3l3.3-.1H76c.2-.2.3-1 .2-1.2l-1.4-.2c-.5-.1-.6-.4-.7-1v-6.8c0-.6.2-1 .3-1 .7-.7 1.8-1 2.7-1 1 0 1.5.2 2 .6.6.5.8 1.2 1 1.8v5.7c0 1.2 0 1.5-.5 1.6l-1.3.3c-.2.2-.2 1 0 1.2h6.6c.2-.1.2-1 .1-1.2ZM93 25c-1.5 0-2.5 1.2-2.5 3 0 1.9.9 4 3.2 4 .4 0 1.2-.2 1.5-.6.6-.5 1-1.5 1-2.6 0-2.3-1.2-3.8-3.2-3.8Zm-.2 12.6c-.6 0-1 .2-1.2.3-1.3.8-1.8 1.5-1.8 2.4 0 .8.3 1.5 1 2 .8.8 2 1.1 3.5 1.1 3 0 4.2-1.5 4.2-3 0-1.2-.5-1.9-1.7-2.3-.8-.3-2.2-.5-4-.5ZM93 45c-1.8 0-3-.4-4.1-1.2-1-.8-1.6-2-1.6-2.8 0-.2.1-.9.6-1.4a15.3 15.3 0 0 1 2.8-2.2l-.2-.2c-1.3-.5-1.7-1.3-1.8-1.8 0-.2-.1-.4.1-.5l.9-.6 1.3-.8V33c-2.1-.7-3.1-2.2-3.1-4.4 0-1.4.7-2.7 1.8-3.6.8-.6 2.9-1.4 4.2-1.4 1.4 0 2.2.4 3.3.7.5.2 1 .3 1.8.3 1.2 0 1.6-.3 2-.7l.2.5c0 .4-.1 1-.4 1.4-.2.3-.8.5-1.3.5h-.1l-.8-.1a10.4 10.4 0 0 1 .2 1.5c0 2.3-1 3.4-2 4.1-1 .8-2.1 1.2-3.4 1.3h-.8c-.2.1-.8.4-.8.9 0 .4.2 1 1.5 1h.8c1.6.2 3.7.3 4.6.7 1.4.4 2.2 1.6 2.2 3 0 2.1-1.5 4-4 5.3-1.3.5-2.5.8-3.9.8Zm16.4-19.8c-.6 0-1.1.1-1.5.4-1.1.7-1.7 2-1.7 4 0 3.8 1.9 6.4 4.6 6.4a3 3 0 0 0 2-.7c.8-.7 1.3-2 1.3-4 0-3.6-2-6.1-4.7-6.1Zm.6 12.2c-5 0-6.7-3.6-6.7-7 0-2.3 1-4 2.8-5.3 1.4-.9 3-1.3 4.5-1.3 3.7 0 6.3 2.6 6.3 6.4 0 2.6-1 4.7-3 6a8 8 0 0 1-4 1.2ZM58.6 25c-.6 0-1.2.1-1.6.4-1.1.7-1.7 2-1.7 4 0 3.8 2 6.4 4.6 6.4a3 3 0 0 0 2-.7c.8-.7 1.3-2 1.3-4 0-3.6-1.9-6.1-4.6-6.1Zm.5 12.2c-5 0-6.7-3.6-6.7-7 0-2.3 1-4 2.9-5.3 1.3-.9 3-1.3 4.4-1.3 3.7 0 6.4 2.6 6.4 6.4 0 2.6-1 4.7-3 6-1 .6-2.6 1.2-4 1.2ZM26 37v-1.1c.6 0 1-.2 1.3-.3.6-.1.8-.4.8-1.1v-7.2c0-.3 0-.6-.2-.9-.5-.3-1-.5-1.8-.7-.2-.1-.4-.2-.4-.4s.2-.4.6-.4c1-.1 3.4-.7 4.4-1.2l.1.5v1.3c0 .2 0 .3.2.3h.2c1.8-1.5 3.5-2 4.3-2 1.5 0 2.5.6 3.4 2l.2.1h.2c1.7-1.4 3.4-2.1 4.5-2.1 2.7 0 4.3 2 4.3 5.3v3.2L48 35c0 .1.2.6.5.7.4.2 1 .3 1.7.4 0 .2 0 1-.2 1h-.7a43.1 43.1 0 0 0-5.8 0v-1l1.1-.3c.6-.1.7-.4.8-1.1v-6.3c-.3-1.1-1.1-2.5-3-2.5-.7 0-1.9.3-3 1.1v7.9c0 .6.4.8.7.9h.5l.9.3v.8l-.2.3L38 37h-3.1l-.1-.5V36h.5l1-.2c.4-.2.6-.4.6-1 0-1.5.2-5.6 0-6.6-.4-1.6-1.3-2.5-2.8-2.5-1 0-2 .5-3 1.2l-.2.6v7.4c0 .3.1.7.8.9h.7l.5.2-.1 1h-1a47.8 47.8 0 0 0-4.6 0h-1Z"
      fill="#442D22" />
    <path fill-rule="evenodd" clip-rule="evenodd"
      d="m11 43.8-1.2-.4s.1-6-2-6.4c-1.5-1.6.2-70 5.4-.2 0 0-1.8.9-2.1 2.4-.4 1.5-.1 4.6-.1 4.6Z" fill="#fff" />
    <path fill-rule="evenodd" clip-rule="evenodd"
      d="m11 43.8-1.2-.4s.1-6-2-6.4c-1.5-1.6.2-70 5.4-.2 0 0-1.8.9-2.1 2.4-.4 1.5-.1 4.6-.1 4.6Z" fill="#A6A385" />
    <path fill-rule="evenodd" clip-rule="evenodd"
      d="M11.6 38s10.3-6.7 8-20.6C17.1 7.2 11.5 3.9 11 2.6 10.4 1.7 9.8.1 9.8.1l.4 28.3S9.3 37 11.6 38Z" fill="#fff" />
    <path fill-rule="evenodd" clip-rule="evenodd"
      d="M11.6 38s10.3-6.7 8-20.6C17.1 7.2 11.5 3.9 11 2.6 10.4 1.7 9.8.1 9.8.1l.4 28.3S9.3 37 11.6 38Z"
      fill="#499D4A" />
    <path fill-rule="evenodd" clip-rule="evenodd"
      d="M9.2 38.4S-.6 32 0 20.4A24.2 24.2 0 0 1 8.8 2.2c.8-1 .9-1.3 1-2.2.5 1.3.4 19.1.5 21.2.3 8.2-.5 15.7-1.1 17.2Z"
      fill="#fff" />
    <path fill-rule="evenodd" clip-rule="evenodd"
      d="M9.2 38.4S-.6 32 0 20.4A24.2 24.2 0 0 1 8.8 2.2c.8-1 .9-1.3 1-2.2.5 1.3.4 19.1.5 21.2.3 8.2-.5 15.7-1.1 17.2Z"
      fill="#58AA50" />
  </symbol>
  <symbol id="icon-node" width="104" height="65" viewBox="0 0 104 65" fill="none" xmlns="http://www.w3.org/2000/svg"
    role="img" aria-label="Логотип node">
    <path
      d="M51.3662 64.8125C51.014 64.8125 50.6853 64.7168 50.3801 64.5493L47.2578 62.6593C46.7883 62.3961 47.023 62.3004 47.1639 62.2525C47.7978 62.0372 47.9151 61.9894 48.5725 61.6066C48.6429 61.5587 48.7368 61.5826 48.8072 61.6305L51.2018 63.0899C51.2957 63.1378 51.4131 63.1378 51.4835 63.0899L60.8506 57.5633C60.9445 57.5154 60.9914 57.4197 60.9914 57.3001V46.2707C60.9914 46.1511 60.9445 46.0554 60.8506 46.0075L51.4835 40.5048C51.3896 40.457 51.2722 40.457 51.2018 40.5048L41.8348 46.0075C41.7409 46.0554 41.6939 46.175 41.6939 46.2707V57.3001C41.6939 57.3958 41.7409 57.5154 41.8348 57.5633L44.3937 59.0705C45.7788 59.7883 46.6474 58.9509 46.6474 58.1135V47.2277C46.6474 47.0842 46.7648 46.9406 46.9291 46.9406H48.1264C48.2673 46.9406 48.4081 47.0602 48.4081 47.2277V58.1135C48.4081 60.0036 47.3987 61.1042 45.6379 61.1042C45.098 61.1042 44.6754 61.1041 43.4781 60.506L41.0131 59.0705C40.4027 58.7117 40.0271 58.0418 40.0271 57.324V46.2946C40.0271 45.5769 40.4027 44.907 41.0131 44.5481L50.3801 39.0215C50.9671 38.6865 51.7652 38.6865 52.3522 39.0215L61.7192 44.5481C62.3296 44.907 62.7052 45.5769 62.7052 46.2946V57.324C62.7052 58.0418 62.3296 58.7117 61.7192 59.0705L52.3522 64.5972C52.047 64.7407 51.6948 64.8125 51.3662 64.8125ZM54.2537 57.2283C50.1454 57.2283 49.3002 55.3143 49.3002 53.6874C49.3002 53.5439 49.4176 53.4003 49.582 53.4003H50.8027C50.9436 53.4003 51.061 53.496 51.061 53.6396C51.2488 54.9076 51.7887 55.5296 54.2772 55.5296C56.2492 55.5296 57.0944 55.0751 57.0944 53.9985C57.0944 53.3764 56.8596 52.9218 53.7842 52.6108C51.2253 52.3476 49.6289 51.7734 49.6289 49.692C49.6289 47.7541 51.2253 46.6057 53.9016 46.6057C56.9066 46.6057 58.3856 47.6584 58.5734 49.9552C58.5734 50.0269 58.5499 50.0987 58.5029 50.1705C58.456 50.2183 58.3856 50.2662 58.3151 50.2662H57.0944C56.977 50.2662 56.8596 50.1705 56.8361 50.0508C56.5544 48.735 55.8266 48.3043 53.9016 48.3043C51.7418 48.3043 51.4835 49.0699 51.4835 49.6441C51.4835 50.3379 51.7887 50.5533 54.6998 50.9361C57.5874 51.3189 58.949 51.8691 58.949 53.9267C58.9255 56.0321 57.2352 57.2283 54.2537 57.2283Z"
      fill="#539E43" />
    <path
      d="M22.3025 21.676C22.3025 21.2454 22.0677 20.8386 21.6921 20.6233L11.7381 14.7856C11.5738 14.6899 11.386 14.6421 11.1982 14.6182H11.1043C10.9165 14.6182 10.7287 14.6899 10.5643 14.7856L0.610384 20.6233C0.234763 20.8386 0 21.2454 0 21.676L0.0234763 37.3707C0.0234763 37.5861 0.140858 37.8014 0.328668 37.8971C0.516479 38.0167 0.751242 38.0167 0.915576 37.8971L6.8316 34.4519C7.20722 34.2366 7.44199 33.8299 7.44199 33.3992V26.0543C7.44199 25.6236 7.67675 25.2169 8.05237 25.0016L10.5643 23.5182C10.7521 23.3986 10.9634 23.3507 11.1747 23.3507C11.386 23.3507 11.5973 23.3986 11.7616 23.5182L14.2736 25.0016C14.6492 25.2169 14.884 25.6236 14.884 26.0543V33.3992C14.884 33.8299 15.1187 34.2366 15.4944 34.4519L21.4104 37.8971C21.5982 38.0167 21.833 38.0167 22.0208 37.8971C22.2086 37.8014 22.326 37.5861 22.326 37.3707L22.3025 21.676Z"
      fill="#333333" />
    <path
      d="M70.1472 0.0717747C69.9594 -0.0239249 69.7246 -0.0239249 69.5603 0.0717747C69.3725 0.191399 69.2551 0.382798 69.2551 0.598122V16.1493C69.2551 16.2929 69.1847 16.4364 69.0438 16.5321C68.9029 16.6039 68.7621 16.6039 68.6212 16.5321L66.1327 15.0727C65.7571 14.8574 65.3111 14.8574 64.9355 15.0727L54.9815 20.9343C54.6059 21.1496 54.3711 21.5563 54.3711 21.987V33.6862C54.3711 34.1169 54.6059 34.5236 54.9815 34.7389L64.9355 40.6005C65.3111 40.8159 65.7571 40.8159 66.1327 40.6005L76.0867 34.7389C76.4623 34.5236 76.6971 34.1169 76.6971 33.6862V4.5218C76.6971 4.06723 76.4623 3.66051 76.0867 3.44518L70.1472 0.0717747ZM69.2316 29.8343C69.2316 29.954 69.1847 30.0497 69.0908 30.0975L65.6867 32.1072C65.5928 32.1551 65.4754 32.1551 65.3815 32.1072L61.9774 30.0975C61.8835 30.0497 61.8366 29.93 61.8366 29.8343V25.815C61.8366 25.6953 61.8835 25.5996 61.9774 25.5518L65.3815 23.5421C65.4754 23.4942 65.5928 23.4942 65.6867 23.5421L69.0908 25.5518C69.1847 25.5996 69.2316 25.7193 69.2316 25.815V29.8343Z"
      fill="#333333" />
    <path
      d="M103.272 25.7192C103.648 25.5039 103.859 25.0972 103.859 24.6665V21.8194C103.859 21.3888 103.624 20.9821 103.272 20.7667L93.3887 14.9291C93.0131 14.7137 92.5671 14.7137 92.1914 14.9291L82.2375 20.7907C81.8619 21.006 81.6271 21.4127 81.6271 21.8434V33.5426C81.6271 33.9733 81.8619 34.38 82.2375 34.5953L92.121 40.3373C92.4966 40.5526 92.9427 40.5526 93.2948 40.3373L99.2813 36.94C99.4691 36.8443 99.5865 36.629 99.5865 36.4136C99.5865 36.1983 99.4691 35.983 99.2813 35.8873L89.2804 30.0257C89.0926 29.9061 88.9752 29.7147 88.9752 29.4993V25.8388C88.9752 25.6235 89.0926 25.4082 89.2804 25.3125L92.4027 23.4942C92.5905 23.3746 92.8253 23.3746 93.0131 23.4942L96.1354 25.3125C96.3233 25.4321 96.4406 25.6235 96.4406 25.8388V28.7098C96.4406 28.9251 96.558 29.1405 96.7458 29.2362C96.9336 29.3558 97.1684 29.3558 97.3562 29.2362L103.272 25.7192Z"
      fill="#333333" />
    <path
      d="M92.6375 25.1689C92.7079 25.1211 92.8018 25.1211 92.8723 25.1689L94.7738 26.2934C94.8443 26.3413 94.8912 26.413 94.8912 26.5087V28.7577C94.8912 28.8534 94.8443 28.9252 94.7738 28.973L92.8723 30.0975C92.8018 30.1453 92.7079 30.1453 92.6375 30.0975L90.7359 28.973C90.6655 28.9252 90.6185 28.8534 90.6185 28.7577V26.5087C90.6185 26.413 90.6655 26.3413 90.7359 26.2934L92.6375 25.1689Z"
      fill="#539E43" />
    <mask id="mask0_15_1923" style="mask-type:alpha" maskUnits="userSpaceOnUse" x="27" y="14" width="23" height="27">
      <path
        d="M38.9472 14.9769C38.5715 14.7616 38.1255 14.7616 37.7499 14.9769L27.8664 20.7907C27.4907 21.006 27.2794 21.4127 27.2794 21.8434V33.4948C27.2794 33.9254 27.5142 34.3322 27.8664 34.5475L37.7499 40.3612C38.1255 40.5766 38.5715 40.5766 38.9472 40.3612L48.8307 34.5475C49.2063 34.3322 49.4176 33.9254 49.4176 33.4948V21.8434C49.4176 21.4127 49.1828 21.006 48.8307 20.7907L38.9472 14.9769Z"
        fill="white" />
    </mask>
    <g mask="url(#mask0_15_1923)">
      <path
        d="M38.9472 14.9769C38.5715 14.7616 38.1255 14.7616 37.7499 14.9769L27.8664 20.7907C27.4907 21.006 27.2794 21.4127 27.2794 21.8434V33.4948C27.2794 33.9254 27.5142 34.3322 27.8664 34.5475L37.7499 40.3612C38.1255 40.5766 38.5715 40.5766 38.9472 40.3612L48.8307 34.5475C49.2063 34.3322 49.4176 33.9254 49.4176 33.4948V21.8434C49.4176 21.4127 49.1828 21.006 48.8307 20.7907L38.9472 14.9769Z"
        fill="url(#paint0_linear_15_1923)" />
      <path
        d="M48.8542 20.7901L38.9237 14.9763C38.8298 14.9285 38.7124 14.8806 38.6185 14.8567L27.4908 34.2837C27.5847 34.4033 27.702 34.499 27.8194 34.5708L37.7499 40.3845C38.0316 40.552 38.3603 40.5999 38.6655 40.5042L49.1124 21.0293C49.042 20.9336 48.9481 20.8618 48.8542 20.7901Z"
        fill="url(#paint1_linear_15_1923)" />
      <path fill-rule="evenodd" clip-rule="evenodd"
        d="M48.8777 34.5476C49.1594 34.3802 49.3707 34.0931 49.4646 33.782L38.5716 14.8335C38.2898 14.7857 37.9846 14.8096 37.7264 14.9771L27.8664 20.7669L38.5011 40.5289C38.642 40.5049 38.8063 40.4571 38.9472 40.3853L48.8777 34.5476Z"
        fill="url(#paint2_linear_15_1923)" />
      <path fill-rule="evenodd" clip-rule="evenodd"
        d="M48.8776 34.5473L38.9706 40.3611C38.8298 40.4329 38.6889 40.4807 38.5246 40.5046L38.7124 40.8635L49.6993 34.3799V34.2363L49.4176 33.7578C49.3706 34.0928 49.1594 34.3799 48.8776 34.5473Z"
        fill="url(#paint3_linear_15_1923)" />
      <path fill-rule="evenodd" clip-rule="evenodd"
        d="M48.8776 34.5473L38.9706 40.3611C38.8298 40.4329 38.6889 40.4807 38.5246 40.5046L38.7124 40.8635L49.6993 34.3799V34.2363L49.4176 33.7578C49.3706 34.0928 49.1594 34.3799 48.8776 34.5473Z"
        fill="url(#paint4_linear_15_1923)" />
    </g>
    <defs>
      <linearGradient id="paint0_linear_15_1923" x1="42.3751" y1="19.3108" x2="31.2472" y2="36.4675"
        gradientUnits="userSpaceOnUse">
        <stop stop-color="#41873F" />
        <stop offset="0.3288" stop-color="#418B3D" />
        <stop offset="0.6352" stop-color="#419637" />
        <stop offset="0.9319" stop-color="#3FA92D" />
        <stop offset="1" stop-color="#3FAE2A" />
      </linearGradient>
      <linearGradient id="paint1_linear_15_1923" x1="36.8479" y1="29.033" x2="64.2108" y2="14.4455"
        gradientUnits="userSpaceOnUse">
        <stop offset="0.1376" stop-color="#41873F" />
        <stop offset="0.4032" stop-color="#54A044" />
        <stop offset="0.7136" stop-color="#66B848" />
        <stop offset="0.9081" stop-color="#6CC04A" />
      </linearGradient>
      <linearGradient id="paint2_linear_15_1923" x1="26.9185" y1="27.6696" x2="49.7884" y2="27.6696"
        gradientUnits="userSpaceOnUse">
        <stop offset="0.0919165" stop-color="#6CC04A" />
        <stop offset="0.2864" stop-color="#66B848" />
        <stop offset="0.5968" stop-color="#54A044" />
        <stop offset="0.8624" stop-color="#41873F" />
      </linearGradient>
      <linearGradient id="paint3_linear_15_1923" x1="26.9185" y1="37.3302" x2="49.7884" y2="37.3302"
        gradientUnits="userSpaceOnUse">
        <stop offset="0.0919165" stop-color="#6CC04A" />
        <stop offset="0.2864" stop-color="#66B848" />
        <stop offset="0.5968" stop-color="#54A044" />
        <stop offset="0.8624" stop-color="#41873F" />
      </linearGradient>
      <linearGradient id="paint4_linear_15_1923" x1="53.1202" y1="18.7599" x2="47.111" y2="49.6577"
        gradientUnits="userSpaceOnUse">
        <stop stop-color="#41873F" />
        <stop offset="0.3288" stop-color="#418B3D" />
        <stop offset="0.6352" stop-color="#419637" />
        <stop offset="0.9319" stop-color="#3FA92D" />
        <stop offset="1" stop-color="#3FAE2A" />
      </linearGradient>
    </defs>
  </symbol>
  <symbol id="icon-vk" viewBox="0 0 48 48" fill="currentColor" ria-hidden="true" focusable="false" role="img" aria-label="Я в VK" xmlns="http://www.w3.org/2000/svg">
    <path fill-rule="evenodd" clip-rule="evenodd"
      d="M0 24a24 24 0 1 1 48 0 24 24 0 0 1-48 0Zm25.3 7.9s.4 0 .7-.3c.2-.3.2-.7.2-.7s0-2 .9-2.3c1-.3 2.1 2 3.4 2.8 1 .7 1.7.5 1.7.5h3.4s1.8-.1 1-1.5c-.1-.1-.5-1-2.6-2.9-2.1-2-1.8-1.6.8-5 1.5-2 2.2-3.3 2-3.9-.2-.5-1.4-.3-1.4-.3h-4.3l-.4.5s-.6 1.6-1.4 3c-1.7 2.8-2.4 3-2.7 2.7-.6-.4-.5-1.6-.5-2.5 0-2.8.5-4-.8-4.2-.4-.1-.7-.2-1.8-.2-1.4 0-2.5 0-3.2.3-.4.2-.8.7-.6.7.3 0 .9.2 1.2.6.4.5.4 1.7.4 1.7s.2 3.3-.6 3.7c-.5.2-1.2-.3-2.7-3-.8-1.2-1.4-2.7-1.4-2.7l-.3-.4-.6-.3H12s-.5 0-.7.3c-.2.2 0 .6 0 .6s2.8 6.6 6 10c3 3 6.4 2.8 6.4 2.8h1.6Z" />
  </symbol>
  <symbol id="icon-telegram" viewBox="0 0 48 48" fill="currentColor" ria-hidden="true" focusable="false" role="img" aria-label="Я в Telegram" version="1.1" xmlns:xlink="http://www.w3.org/1999/xlink" xmlns="http://www.w3.org/2000/svg">
    <defs>
      <path d="M0 0L48 0L48 48L0 48L0 0Z" id="path_1" />
      <clipPath id="mask_1">
        <use xlink:href="#path_1" />
      </clipPath>
    </defs>
    <g id="telegram_logo_icon_144811">
      <path d="M0 0L48 0L48 48L0 48L0 0Z" id="Background" fill="none" fill-rule="evenodd" stroke="none" />
      <g clip-path="url(#mask_1)">
        <path d="M24 0.75C11.1594 0.75 0.750031 11.1593 0.75 23.9999C0.749967 36.8405 11.1593 47.2499 23.9999 47.25C36.8405 47.25 47.2499 36.8407 47.2499 24.0001C47.25 11.1595 36.8407 0.7501 24.0001 0.75L24 0.75ZM35.4 16.65L31.65 34.65C31.35 36 30.6 36.15 29.55 35.7L23.55 31.35L20.85 34.05C20.55 34.35 20.25 34.65 19.65 34.65L20.1 28.65L30.9 19.05C31.35 18.6 30.9 18.3 30.15 18.75L16.8 27.15L11.1 25.35C9.9 24.9 9.9 24.15 11.4 23.55L33.9 14.85C34.8 14.4 35.7 15.15 35.4 16.65L35.4 16.65Z" id="Shape" fill-rule="evenodd" stroke="none" />
      </g>
    </g>
  </symbol>
  <symbol id="icon-github" viewBox="0 0 48 48" fill="currentColor" ria-hidden="true" focusable="false" role="img" aria-label="Я в Github" version="1.1" xmlns:xlink="http://www.w3.org/1999/xlink" xmlns="http://www.w3.org/2000/svg">
    <defs>
      <path d="M0 0L48 0L48 48L0 48L0 0Z" id="path_1" />
      <clipPath id="mask_1">
        <use xlink:href="#path_1" />
      </clipPath>
    </defs>
    <g id="github-logo_icon-icons.com_73546">
      <path d="M0 0L48 0L48 48L0 48L0 0Z" id="Background" fill="none" fill-rule="evenodd" stroke="none" />
      <g clip-path="url(#mask_1)">
        <path d="M44.7817 12.5446C40.5 5.12367 32.573 0.562957 24.0055 0.591103C17.6299 0.561831 11.507 3.08157 6.99872 7.58983C2.49046 12.0981 -0.029279 18.221 -7.18574e-06 24.5966C-7.18574e-06 29.818 1.53249 34.525 4.57559 38.6955C7.64059 42.8771 11.5813 45.7669 16.3977 47.376C16.9669 47.4855 17.3829 47.3979 17.6565 47.1571C17.9302 46.9054 18.0616 46.5879 18.0616 46.2157C18.0552 44.7286 18.0442 43.2412 18.0287 41.7539L17.3172 41.87C16.0164 42.0275 14.6993 41.9906 13.4094 41.7605C12.654 41.6292 11.9535 41.3227 11.3076 40.8301C10.6662 40.342 10.1889 39.6699 9.93933 38.9035L9.62189 38.1811C9.35822 37.6145 9.02746 37.0816 8.63671 36.5938C8.19885 36.0027 7.7391 35.6087 7.27935 35.4007L7.06043 35.2474C6.77037 35.0351 6.53418 34.7576 6.3708 34.4374C6.31607 34.2841 6.3708 34.1637 6.535 34.0762C6.69919 33.9776 7.00569 33.9339 7.4326 33.9339L8.0675 34.0324C8.48346 34.109 8.99794 34.3608 9.59999 34.7767C10.2267 35.1986 10.7505 35.756 11.1325 36.4078C11.5448 37.1862 12.1379 37.8544 12.862 38.3562C13.5407 38.7941 14.2194 39.0239 14.909 39.0239C15.5986 39.0239 16.1897 38.9802 16.6933 38.8707C17.1859 38.7612 17.6566 38.608 18.0944 38.4C18.1987 37.1771 18.7432 36.0336 19.6269 35.1818C18.5452 35.0774 17.473 34.8907 16.4196 34.6235C15.4782 34.3717 14.493 33.9667 13.486 33.3975C12.519 32.8752 11.6637 32.1686 10.9683 31.3177C10.2244 30.3329 9.6678 29.2198 9.32633 28.0337C8.87695 26.5098 8.66285 24.9263 8.69144 23.3377C8.69144 20.8201 9.51242 18.6746 11.1544 16.9013C10.3881 15.0075 10.4538 12.8839 11.3733 10.5195C11.9754 10.3334 12.873 10.4757 14.0661 10.9464C15.456 11.4706 16.7788 12.1577 18.0068 12.9934C21.9303 11.8934 26.0806 11.8934 30.0041 12.9934L31.1863 12.249C32.0073 11.7455 32.9596 11.2857 34.0652 10.8698C35.1599 10.4538 36.0137 10.3334 36.5938 10.5304C37.5352 12.8839 37.6228 15.0075 36.8456 16.9013C38.481 18.6402 39.3692 20.9511 39.3195 23.3377C39.3195 25.1111 39.1006 26.6764 38.6737 28.0447C38.3376 29.2349 37.7765 30.3497 37.0207 31.3286C36.3165 32.1751 35.4585 32.8807 34.4921 33.4084C33.4741 33.9558 32.4999 34.3717 31.5475 34.6125C30.6061 34.8753 29.5334 35.0504 28.3512 35.1818C29.4349 36.1231 29.9713 37.6009 29.9713 39.626L29.9713 46.2157C29.9713 46.5879 30.1026 46.9054 30.3653 47.1571C30.628 47.398 31.0331 47.4855 31.6023 47.3761C36.4296 45.7669 40.3703 42.8771 43.4244 38.6956C46.4442 34.6154 48.0506 29.6615 48 24.5856C48 20.2399 46.9272 16.2226 44.7817 12.5446L44.7817 12.5446Z" id="Shape" stroke="none" />
      </g>
    </g>
  </symbol>
</svg>
