<svg width="162" height="37" fill="none" xmlns="http://www.w3.org/2000/svg" viewBox="0 0 162 37" role="img" aria-label="Логотип jquery">
  <path fill-rule="evenodd" clip-rule="evenodd" d="M154.4 2.7h6.7l-13.6 18.5c-.3.4-.8 1-1 1.5-.7 1.5-1.4 4.8-1.4 4.8H139s1-3.4 1-5.2c0-1.6-.9-3.2-1.4-4.9l-1-4.8h6.3l.9 3.5 9.7-13.4Z" fill="#1A1918"/>
  <path fill-rule="evenodd" clip-rule="evenodd" d="M141.6 6.3c1.2.8 2 5 2 5h-13.1l-3.8 16.2H121s3.5-17.6 4.4-20.8c.2-1 1.8-.9 4.5-.9h4.3c2.8 0 6-.3 7.4.5ZM115 14.2s.2-1-.6-2.2c-.7-1-1.3-1.3-3-1.4-5-.1-5 3.6-5 3.6h8.6Zm5.4-4.2a27 27 0 0 1-.7 8.8h-11.2c-1.2 0-2.7-.2-3 .4-.6.8.1 2 .7 2.6.7.6 2 .7 2.5.7 3.3.4 10 .1 10 .1l-1.2 5.2s-9.5.5-14.2-.7c-1-.2-1.9-.7-2.5-1.3l-.4-.6-.7-1.2c-1-2.8.2-8.4 1.4-11.4l.5-1.1.6-1.3c0-.2.2-.3.4-.5l.4-.6 1.6-1.3c2-1.5 5.5-2.6 9.9-2.2 1.6.2 4 .8 5.2 2.4.3.5.5 1.4.7 2ZM94.2 5.8h5.5l-4.6 21.7h-6.4c-4.4 0-8.4.6-10-2.6-1.7-3-.2-8.2.6-11.6l1.6-7.5h5.7l-2.3 11.6c-.2 1.4-.7 2.7-.2 3.8.5 1 1.2 1 3.3 1h2.9l3.9-16.4ZM68.3 16.3c.6-2 1.4-4.2 1.3-6 0-2-1.8-3.9-2.8-4.3a7.3 7.3 0 0 0-7.5 1.8c-1.5 1.7-2 3.6-2.6 6.4-.4 2-.8 4 0 5.7C58 22.6 62 22 66.6 22l1.7-5.8Zm7.7-8c.6 4.5-1.8 9.6-3.5 14 1.7.2 3.2 0 3.3.1.1.2-1.1 5.3-1.5 5.3h-7.7c-6.1 0-11.8.5-14.7-2.6a9.6 9.6 0 0 1-2.2-4.8c-.4-2.5 0-5.2.6-7.5.5-2 1.2-4 2.2-5.7 2.6-4.4 7-7.8 14.5-7 1.4.2 3.5.8 4.8 1.5l.5.4A9.6 9.6 0 0 1 76 8.2ZM49 5.8 48 11.1h-6.1c.4-1.9.8-3.7 1.3-5.3h6ZM41.5 12.6h6c-.8 4.3-2.3 11.2-3.6 16-.7 3-1.2 5.3-3.2 6.8l-.5.3c-.4.3-2 .7-3 .8-1.6.2-3.4 0-5.3 0l1.5-5.7c4.7.6 4.8-3.8 5.7-8l2.4-10.2Z" fill="#1A1918"/>
  <path fill-rule="evenodd" clip-rule="evenodd" d="m27.7 23.8-.1.3c-2.2 4.3-6 6.8-11.5 7a16 16 0 0 1-14.5-8.8c-2.2-4.4-2.6-10.5 2-15l-.4 1-.2.4c-3.4 10.6 7 19.7 17.2 18.6 2.5-.2 5.6-1.6 7.5-3.5Z" fill="#21609B"/>
  <path fill-rule="evenodd" clip-rule="evenodd" d="M21.6 19.4c2.5 0 5.2-1.2 6.8-2.8-1.4 3.5-5.4 5.7-10.8 5-4.5-.6-8.8-5.1-9.2-9.6-.3-3.3.8-5.3 2.7-7.7a8 8 0 0 0-1 2.8c-.7 7.2 5.8 12.3 11.5 12.3Z" fill="#21609B"/>
  <path fill-rule="evenodd" clip-rule="evenodd" d="M28.1 10.6a8 8 0 0 1-3.7 2.8A7 7 0 0 1 16 8.8c-.5-1.8-.3-4.5 1.3-5.9a7.3 7.3 0 0 0-.3 3.9c.1.6.6 1.6 1 2.3.8 1.2 1.4 1.5 2.4 2.1.5.3 1 .6 1.3.6 1 .3 3 1 6.5-1.2Z" fill="#21609B"/>
</svg>
