<svg width="65" height="65" fill="none" xmlns="http://www.w3.org/2000/svg" viewBox="0 0 65 65" role="img" aria-label="Логотип js">
  <path d="M0 0h65v65H0V0Z" fill="#F7DF1E"/>
  <path d="m17 54.3 5-3c1 1.7 1.9 3.1 4 3.1 2 0 3.3-.7 3.3-3.8V29.8h6v20.9c0 6.3-3.6 9.2-9 9.2a9.5 9.5 0 0 1-9.2-5.6M38.7 53.7l5-3c1.3 2.2 3 3.8 6 3.8 2.5 0 4.1-1.3 4.1-3 0-2.1-1.6-2.9-4.4-4l-1.5-.7c-4.5-2-7.4-4.3-7.4-9.2 0-4.6 3.5-8.1 9-8.1 3.9 0 6.6 1.3 8.6 4.9l-4.7 3c-1-1.8-2.2-2.6-4-2.6-1.7 0-2.9 1.1-2.9 2.6 0 1.9 1.2 2.6 3.8 3.7l1.5.7C57 44 60 46.3 60 51.4c0 5.5-4.3 8.5-10 8.5-5.8 0-9.4-2.7-11.2-6.2" fill="#000"/>
</svg>
