<svg width="14" height="25" fill="none" xmlns="http://www.w3.org/2000/svg"><path d="M11.7 0H1.6A1.6 1.6 0 0 0 0 1.6v21a1.6 1.6 0 0 0 1.6 1.6h10.1a1.6 1.6 0 0 0 1.6-1.5V1.6A1.6 1.6 0 0 0 11.7 0ZM8.5.8l-.3.8H5L4.8.8h3.7Zm4 21.9a.8.8 0 0 1-.8.7H1.6a.8.8 0 0 1-.8-.7V1.6a.8.8 0 0 1 .8-.8H4L4.3 2a.4.4 0 0 0 .4.3h3.8a.4.4 0 0 0 .4-.2L9.3.8h2.4a.8.8 0 0 1 .8.8v21Z" fill="#000"/><path d="M4.7 21.9H2a.4.4 0 0 0 0 .8h2.7a.4.4 0 1 0 0-.8ZM6.3 21.9h-.4a.4.4 0 0 0 0 .8h.3a.4.4 0 1 0 0-.8ZM8 9.8a.4.4 0 0 0-.5.2L5 13.9a.4.4 0 0 0 .7.4l2.3-4a.4.4 0 0 0 0-.5ZM9.3 10a.4.4 0 0 0-.6.4l1.3 1.7-1.3 1.7a.4.4 0 0 0 .6.5l1.6-2a.4.4 0 0 0 0-.4l-1.6-2ZM4 14.3a.4.4 0 0 0 .6-.5l-1.4-1.7 1.4-1.7a.4.4 0 1 0-.6-.5l-1.6 2a.4.4 0 0 0 0 .5l1.6 2Z" fill="#000"/></svg>