<svg width="160" height="45" fill="none" xmlns="http://www.w3.org/2000/svg" viewBox="0 0 160 45" role="img" aria-label="Логотип html5"><path fill-rule="evenodd" clip-rule="evenodd" d="M149 18.6c-.2 0-.3.3-.3.5a337.6 337.6 0 0 0 .1 6.4h2.4c1.2 0 2-.2 2.3-.3 1-.5 1.6-1.6 1.6-2.9 0-2.7-2-3.8-5-3.8H149Zm7.4 12.7c0-2.8-2-4.4-5.9-4.4h-1.7l-.2.2v6.5c.1.5.5 1.3 1 1.5.6.3 1.7.4 2.5.4 2.3 0 4.3-1.3 4.3-4.2ZM143.1 17h9.2c2.5 0 6 1 6 4.6 0 1.8-1.3 3.3-3 4-.1 0-.1 0 0 .1 2.4.6 4.5 2 4.5 4.9 0 2.7-1.7 4.4-4.2 5.5a14 14 0 0 1-5.4.9c-1.5 0-5.4-.2-7.6-.1-.2 0 .2-1.1.4-1.3.5 0 1 0 1.5-.2.8-.2.8-.4 1-1.6v-14c0-.8-.3-1.1-1-1.3l-2-.3.6-1.2Zm-16.6 17.7c.6.5 2 .8 3.2.8 1.6 0 3.1-.3 4.6-1.7 1.6-1.3 2.6-3.4 2.6-6.8 0-3.2-1.2-5.8-3.8-7.3a10.3 10.3 0 0 0-7-1.1s-.3.3-.3.5v14.2c0 .5.2 1.1.7 1.4ZM119.9 17h10.2c2.9 0 5.3.8 7 2.2a9.2 9.2 0 0 1 3.3 7.3c0 4.3-2 6.8-4 8.2-2 1.5-4.6 2.3-8.3 2.3H120c-.2-.3.2-1.3.4-1.4.7 0 1 0 1.3-.2.6-.2.7-.6.8-1.6V20c0-1-.5-1.3-1.3-1.5l-1.8-.2c-.2-.2.4-1.1.5-1.3Z" fill="#8E714E"/><path fill-rule="evenodd" clip-rule="evenodd" d="M85 35.8c-.7 0-1.2-.2-1.9-.5L83 35V29c0-1.5-.3-2.8-1-3.8a4 4 0 0 0-3.3-1.7c-1.3 0-3 .9-4.4 2 0 0-.3.3-.2 0v-1.4l-.1-.6c-1 .5-3.6 1-4.5 1.1-.7.2-.9.8-.2 1l1.8.8c.3.2.2.5.2.8v7.2c0 .7-.3 1-.8 1l-1.1.3c-.2.2-.2 1 0 1.3l3.3-.1H76c.2-.2.3-1 .2-1.2l-1.4-.2c-.5-.1-.6-.4-.7-1v-6.8c0-.6.2-1 .3-1 .7-.7 1.8-1 2.7-1 1 0 1.5.2 2 .6.6.5.8 1.2 1 1.8v5.7c0 1.2 0 1.5-.5 1.6l-1.3.3c-.2.2-.2 1 0 1.2h6.6c.2-.1.2-1 .1-1.2ZM93 25c-1.5 0-2.5 1.2-2.5 3 0 1.9.9 4 3.2 4 .4 0 1.2-.2 1.5-.6.6-.5 1-1.5 1-2.6 0-2.3-1.2-3.8-3.2-3.8Zm-.2 12.6c-.6 0-1 .2-1.2.3-1.3.8-1.8 1.5-1.8 2.4 0 .8.3 1.5 1 2 .8.8 2 1.1 3.5 1.1 3 0 4.2-1.5 4.2-3 0-1.2-.5-1.9-1.7-2.3-.8-.3-2.2-.5-4-.5ZM93 45c-1.8 0-3-.4-4.1-1.2-1-.8-1.6-2-1.6-2.8 0-.2.1-.9.6-1.4a15.3 15.3 0 0 1 2.8-2.2l-.2-.2c-1.3-.5-1.7-1.3-1.8-1.8 0-.2-.1-.4.1-.5l.9-.6 1.3-.8V33c-2.1-.7-3.1-2.2-3.1-4.4 0-1.4.7-2.7 1.8-3.6.8-.6 2.9-1.4 4.2-1.4 1.4 0 2.2.4 3.3.7.5.2 1 .3 1.8.3 1.2 0 1.6-.3 2-.7l.2.5c0 .4-.1 1-.4 1.4-.2.3-.8.5-1.3.5h-.1l-.8-.1a10.4 10.4 0 0 1 .2 1.5c0 2.3-1 3.4-2 4.1-1 .8-2.1 1.2-3.4 1.3h-.8c-.2.1-.8.4-.8.9 0 .4.2 1 1.5 1h.8c1.6.2 3.7.3 4.6.7 1.4.4 2.2 1.6 2.2 3 0 2.1-1.5 4-4 5.3-1.3.5-2.5.8-3.9.8Zm16.4-19.8c-.6 0-1.1.1-1.5.4-1.1.7-1.7 2-1.7 4 0 3.8 1.9 6.4 4.6 6.4a3 3 0 0 0 2-.7c.8-.7 1.3-2 1.3-4 0-3.6-2-6.1-4.7-6.1Zm.6 12.2c-5 0-6.7-3.6-6.7-7 0-2.3 1-4 2.8-5.3 1.4-.9 3-1.3 4.5-1.3 3.7 0 6.3 2.6 6.3 6.4 0 2.6-1 4.7-3 6a8 8 0 0 1-4 1.2ZM58.6 25c-.6 0-1.2.1-1.6.4-1.1.7-1.7 2-1.7 4 0 3.8 2 6.4 4.6 6.4a3 3 0 0 0 2-.7c.8-.7 1.3-2 1.3-4 0-3.6-1.9-6.1-4.6-6.1Zm.5 12.2c-5 0-6.7-3.6-6.7-7 0-2.3 1-4 2.9-5.3 1.3-.9 3-1.3 4.4-1.3 3.7 0 6.4 2.6 6.4 6.4 0 2.6-1 4.7-3 6-1 .6-2.6 1.2-4 1.2ZM26 37v-1.1c.6 0 1-.2 1.3-.3.6-.1.8-.4.8-1.1v-7.2c0-.3 0-.6-.2-.9-.5-.3-1-.5-1.8-.7-.2-.1-.4-.2-.4-.4s.2-.4.6-.4c1-.1 3.4-.7 4.4-1.2l.1.5v1.3c0 .2 0 .3.2.3h.2c1.8-1.5 3.5-2 4.3-2 1.5 0 2.5.6 3.4 2l.2.1h.2c1.7-1.4 3.4-2.1 4.5-2.1 2.7 0 4.3 2 4.3 5.3v3.2L48 35c0 .1.2.6.5.7.4.2 1 .3 1.7.4 0 .2 0 1-.2 1h-.7a43.1 43.1 0 0 0-5.8 0v-1l1.1-.3c.6-.1.7-.4.8-1.1v-6.3c-.3-1.1-1.1-2.5-3-2.5-.7 0-1.9.3-3 1.1v7.9c0 .6.4.8.7.9h.5l.9.3v.8l-.2.3L38 37h-3.1l-.1-.5V36h.5l1-.2c.4-.2.6-.4.6-1 0-1.5.2-5.6 0-6.6-.4-1.6-1.3-2.5-2.8-2.5-1 0-2 .5-3 1.2l-.2.6v7.4c0 .3.1.7.8.9h.7l.5.2-.1 1h-1a47.8 47.8 0 0 0-4.6 0h-1Z" fill="#442D22"/><path fill-rule="evenodd" clip-rule="evenodd" d="m11 43.8-1.2-.4s.1-6-2-6.4c-1.5-1.6.2-70 5.4-.2 0 0-1.8.9-2.1 2.4-.4 1.5-.1 4.6-.1 4.6Z" fill="#fff"/><path fill-rule="evenodd" clip-rule="evenodd" d="m11 43.8-1.2-.4s.1-6-2-6.4c-1.5-1.6.2-70 5.4-.2 0 0-1.8.9-2.1 2.4-.4 1.5-.1 4.6-.1 4.6Z" fill="#A6A385"/><path fill-rule="evenodd" clip-rule="evenodd" d="M11.6 38s10.3-6.7 8-20.6C17.1 7.2 11.5 3.9 11 2.6 10.4 1.7 9.8.1 9.8.1l.4 28.3S9.3 37 11.6 38Z" fill="#fff"/><path fill-rule="evenodd" clip-rule="evenodd" d="M11.6 38s10.3-6.7 8-20.6C17.1 7.2 11.5 3.9 11 2.6 10.4 1.7 9.8.1 9.8.1l.4 28.3S9.3 37 11.6 38Z" fill="#499D4A"/><path fill-rule="evenodd" clip-rule="evenodd" d="M9.2 38.4S-.6 32 0 20.4A24.2 24.2 0 0 1 8.8 2.2c.8-1 .9-1.3 1-2.2.5 1.3.4 19.1.5 21.2.3 8.2-.5 15.7-1.1 17.2Z" fill="#fff"/><path fill-rule="evenodd" clip-rule="evenodd" d="M9.2 38.4S-.6 32 0 20.4A24.2 24.2 0 0 1 8.8 2.2c.8-1 .9-1.3 1-2.2.5 1.3.4 19.1.5 21.2.3 8.2-.5 15.7-1.1 17.2Z" fill="#58AA50"/></svg>
