<svg width="72" height="65" fill="none" xmlns="http://www.w3.org/2000/svg" viewBox="0 0 72 65" role="img" aria-label="Логотип react">
  <path d="M.2 32.4C.2 38 5.5 43 13.8 45.8c-1.7 8.4-.3 15.2 4.3 17.8 4.6 2.7 11.6.8 18.2-5 6.5 5.6 13 7.8 17.6 5.2 4.6-2.8 6-10 4.4-18.7 8.6-2.8 13.5-7.2 13.5-12.7 0-5.3-5.3-9.9-13.5-12.7 1.8-9 .3-15.6-4.5-18.4-4.6-2.6-11.2-.3-17.7 5.4-6.8-6-13.3-8-18-5.2-4.7 2.7-6 9.6-4.3 18.1C5.8 22.5.2 27.1.2 32.4Z" fill="#fff"/>
  <path d="m56.5 22.5-2-.6.3-1.4c1.6-7.6.5-13.7-3-15.7-3.2-1.9-8.7.1-14.1 4.9L36 11.2l-1-1C29.2 5 23.4 2.9 20 4.9c-3.3 2-4.3 7.7-3 14.8l.6 2.1-2.4.8c-6.7 2.3-11 6-11 9.9 0 4 4.6 7.9 11.6 10.3l1.7.5-.5 2.3c-1.3 7-.3 12.6 3 14.5 3.5 2 9.2 0 14.8-5l1.3-1.1 1.7 1.5c5.4 4.7 10.7 6.6 14 4.7 3.4-2 4.5-8 3.1-15.3l-.4-1.7 1.2-.4c7.3-2.4 12-6.3 12-10.3 0-3.9-4.4-7.6-11.3-10Z" fill="#53C1DE"/>
  <path d="m55 40.2-1.1.4c-.8-2.6-1.9-5.3-3.2-8.1 1.2-2.8 2.3-5.5 3-8l2 .6c5.8 2 9.4 5 9.4 7.4 0 2.4-3.9 5.6-10.1 7.7Zm-2.7 5.2c.7 3.2.8 6.2.4 8.4-.4 2.1-1.2 3.5-2.1 4-2 1.2-6.3-.3-11-4.3L38.2 52a64 64 0 0 0 5.3-6.8c3-.3 6-.7 8.6-1.3l.3 1.5ZM26 57.6c-2 .7-3.6.7-4.5.2-2-1.2-2.8-5.7-1.7-11.7l.5-2.1c2.6.6 5.4 1 8.5 1.2 1.8 2.5 3.6 4.8 5.5 6.8L33 53.1a23 23 0 0 1-7.1 4.5Zm-9.2-17.4a23 23 0 0 1-7.4-4C7.8 35 7 33.6 7 32.6c0-2.4 3.5-5.3 9.2-7.4a39 39 0 0 1 2.2-.6c.8 2.6 1.8 5.3 3 8a66.7 66.7 0 0 0-3 8.2l-1.6-.5Zm3-21c-1.1-6.1-.3-10.8 1.7-12 2-1.2 6.8.6 11.7 5l1 .9c-1.9 2-3.7 4.3-5.4 6.7-3 .3-5.9.8-8.5 1.4l-.4-2ZM47.4 26l-2-3.2 5.8 1c-.5 1.8-1.2 3.6-2 5.5a95 95 0 0 0-1.8-3.3ZM36 15l3.7 4.6a79.7 79.7 0 0 0-7.5 0c1.3-1.7 2.5-3.2 3.8-4.5ZM24.8 26 23 29.3l-2-5.5c1.8-.4 3.8-.8 5.8-1l-2 3.2Zm2 16.3c-2-.2-4-.5-5.8-1l2-5.6L25 39c.6 1.2 1.3 2.2 2 3.3Zm9.4 7.8-3.9-4.6a94.4 94.4 0 0 0 7.6 0 58 58 0 0 1-3.7 4.6Zm13-14.5a58 58 0 0 1 2 5.6c-1.8.5-3.8.8-5.9 1a95.5 95.5 0 0 0 3.8-6.6Zm-4.3 2-3 5a81.4 81.4 0 0 1-11.6 0l-3.1-5c-1-1.6-1.9-3.4-2.7-5a76.7 76.7 0 0 1 5.8-10 76 76 0 0 1 11.6 0 82.2 82.2 0 0 1 5.8 9.9l-2.8 5.2Zm5.6-30.4c2.2 1.2 3 6.2 1.6 12.7l-.2 1.3c-2.7-.6-5.5-1-8.5-1.4a64 64 0 0 0-5.4-6.7c.5-.5 1-1 1.5-1.3 4.6-4.1 9-5.8 11-4.6Z" fill="#fff"/>
<path d="M36 26.8c3.2 0 5.7 2.5 5.7 5.7a5.7 5.7 0 1 1-5.6-5.7Z" fill="#53C1DE"/></svg>
