<svg width="25" height="25" fill="none" xmlns="http://www.w3.org/2000/svg"><path d="M22.5 3.8H11.2v.8h11.3v-.8ZM18.3 5.4h-7v.9h7v-.9ZM18.3 7h-7v1h7V7ZM22.5 2h-8v1h8V2ZM13.7 2H13v1h.8V2ZM13 16.7h-1v.8h1v-.8ZM7 2.8l-.6-.6-.9.8v.6l.9.9.6-.6-.6-.6.6-.5ZM10.3 3l-.8-.8-.6.6.5.5L9 4l.6.6.8-.9c.2-.1.2-.4 0-.6ZM8 2 7 4.5l.8.2.8-2.5L8 2ZM21.7 13V9.5h-.9v3.3H20V8.7h-.8V13h-.9v-2h-.8v2h-.8v-2.5h-.9V13H15v-1.7h-.8V13h-.9v.8h9.2V13h-.8Z" fill="#000"/><path d="M22 0H3A2.5 2.5 0 0 0 .3 2.5v14.2c0 1.3 1.1 2.5 2.5 2.5h5.2l-1.7 3.3H4.2a1.2 1.2 0 1 0 0 2.5h16.6a1.3 1.3 0 0 0 0-2.5h-2.2l-1.7-3.3h5.2c1.4 0 2.5-1.2 2.5-2.5V2.5C24.6 1.1 23.5 0 22 0ZM1.3 5.9l1 1c0 .2.2.2.3.2h1.3L4 7l1-1.1.9.3.1 1.4c0 .2 0 .3.2.3l1 .8h.3l1.5-.3.6.8-.8 1.2c0 .2-.1.3 0 .4l.3 1.2.3.3 1.3.5v1l-1.3.6-.3.2-.1.4H6.7a4 4 0 0 0-5.5-5.1v-4Zm0 5A3 3 0 0 1 5.7 15H1.2v-4.1Zm19.6 12.4a.4.4 0 0 1 0 .9H4.2a.4.4 0 0 1 0-.9h16.6Zm-3.1-.8H7.3L9 19.2h7l1.7 3.3Zm6-5.8c0 .9-.7 1.6-1.6 1.6H2.9c-.9 0-1.7-.7-1.7-1.6v-.9h22.5v.9Zm0-1.7H10.1l1.3-.5c.2 0 .3-.2.3-.4v-1.6c0-.1-.1-.3-.3-.3l-1.4-.6-.3-.9.8-1.3v-.5l-1-1.2a.4.4 0 0 0-.4-.2L7.6 8 7 7.4V5.8c-.1-.1-.2-.3-.4-.3L5.1 5l-.5.1-1 1.2h-.9l-1-1.2a.4.4 0 0 0-.4-.1V2.5c0-1 .7-1.7 1.6-1.7h19.2c.9 0 1.6.8 1.6 1.7V15Z" fill="#000"/></svg>