<svg width="48px" height="48px" viewBox="0 0 48 48" version="1.1" xmlns:xlink="http://www.w3.org/1999/xlink" xmlns="http://www.w3.org/2000/svg">
  <defs>
    <path d="M0 0L48 0L48 48L0 48L0 0Z" id="path_1" />
    <clipPath id="mask_1">
      <use xlink:href="#path_1" />
    </clipPath>
  </defs>
  <g id="telegram_logo_icon_144811">
    <path d="M0 0L48 0L48 48L0 48L0 0Z" id="Background" fill="none" fill-rule="evenodd" stroke="none" />
    <g clip-path="url(#mask_1)">
      <path d="M24 0.75C11.1594 0.75 0.750031 11.1593 0.75 23.9999C0.749967 36.8405 11.1593 47.2499 23.9999 47.25C36.8405 47.25 47.2499 36.8407 47.2499 24.0001C47.25 11.1595 36.8407 0.7501 24.0001 0.75L24 0.75ZM35.4 16.65L31.65 34.65C31.35 36 30.6 36.15 29.55 35.7L23.55 31.35L20.85 34.05C20.55 34.35 20.25 34.65 19.65 34.65L20.1 28.65L30.9 19.05C31.35 18.6 30.9 18.3 30.15 18.75L16.8 27.15L11.1 25.35C9.9 24.9 9.9 24.15 11.4 23.55L33.9 14.85C34.8 14.4 35.7 15.15 35.4 16.65L35.4 16.65Z" id="Shape" fill="#000000" fill-rule="evenodd" stroke="none" />
    </g>
  </g>
</svg>
