<svg width="48" height="48" viewBox="0 0 48 48" ria-hidden="true" focusable="false" role="img" aria-label="Я в VK" fill="none" xmlns="http://www.w3.org/2000/svg">
  <path fill-rule="evenodd" clip-rule="evenodd" d="M0 24a24 24 0 1 1 48 0 24 24 0 0 1-48 0Zm25.3 7.9s.4 0 .7-.3c.2-.3.2-.7.2-.7s0-2 .9-2.3c1-.3 2.1 2 3.4 2.8 1 .7 1.7.5 1.7.5h3.4s1.8-.1 1-1.5c-.1-.1-.5-1-2.6-2.9-2.1-2-1.8-1.6.8-5 1.5-2 2.2-3.3 2-3.9-.2-.5-1.4-.3-1.4-.3h-4.3l-.4.5s-.6 1.6-1.4 3c-1.7 2.8-2.4 3-2.7 2.7-.6-.4-.5-1.6-.5-2.5 0-2.8.5-4-.8-4.2-.4-.1-.7-.2-1.8-.2-1.4 0-2.5 0-3.2.3-.4.2-.8.7-.6.7.3 0 .9.2 1.2.6.4.5.4 1.7.4 1.7s.2 3.3-.6 3.7c-.5.2-1.2-.3-2.7-3-.8-1.2-1.4-2.7-1.4-2.7l-.3-.4-.6-.3H12s-.5 0-.7.3c-.2.2 0 .6 0 .6s2.8 6.6 6 10c3 3 6.4 2.8 6.4 2.8h1.6Z" fill="currentColor"/>
</svg>
